# xmcd
#
# Track frame offsets:
#	150
#	22468
#	49746
#	76759
#	102310
#	119417
#	136140
#	149776
#	166038
#	191485
#	209572
#	230118
#	259750
#	275473
#	297562
#
# Disc length: 4253 seconds
# Revision: 0
# Processed by: cddbd v1.5.2PL0 Copyright (c) Steve Scherf et al.
# Submitted via: dBpowerAMP V12.0
#
DISCID=ec109b0f
DTITLE=Various Artist - Golden Eighties The Rare Funky Selection Vol. 1
DYEAR=2007
DGENRE=Funk, Soul
TTITLE0=Leroy Hutson - Reality
TTITLE1=Goldie Alexander - Spend My Life Wit You
TTITLE2=Tony Sherman - Eloouee EE
TTITLE3=Total Contrast - Be With You Tonight
TTITLE4=JP Rogers Junior - All My Lovin
TTITLE5=Willie Hutch - The Girl
TTITLE6=Mighty 7 - Call Me
TTITLE7=Magic Mooris - Choosin You
TTITLE8=LA Boppers - Perfect Love
TTITLE9=Herbert Charles - Lost Du Her Love
TTITLE10=Otis Clay - The Only Way Is Up
TTITLE11=Circle City Band - Magic
TTITLE12=Eloise Laws - Love Ain´t Easy
TTITLE13=Sequence - Just Want You Know
TTITLE14=Zager Feat. Luther Vandross - Stop Sneakin On Me
EXTD=
EXTT0=
EXTT1=
EXTT2=
EXTT3=
EXTT4=
EXTT5=
EXTT6=
EXTT7=
EXTT8=
EXTT9=
EXTT10=
EXTT11=
EXTT12=
EXTT13=
EXTT14=
PLAYORDER=
